<?xml version="1.0" ?><svg viewBox="0 0 341.55 272.03" xmlns="http://www.w3.org/2000/svg"><defs><style>.cls-1{fill:#fbfcf2;}.cls-2,.cls-5{opacity:0.15;}.cls-3,.cls-5{fill:#3f5a7c;}.cls-4{fill:#fff;}.cls-6{fill:#2e576d;}.cls-7{fill:none;stroke:#2e576d;stroke-miterlimit:10;stroke-width:2px;}</style></defs><title/><g data-name="Layer 2" id="Layer_2"><g data-name="Layer 1" id="Layer_1-2"><path class="cls-1" d="M157.61,43.94c-17.5-.35-33.89-8.28-49.13-16.88C88.29,15.67,67.4,2.07,43.25,2.77,32,3.09,20.63,7,12.66,14.88,3.87,23.62,0,36.43,0,48.83-.08,77.72,17.66,102.63,20.55,131c2.52,24.65-7.54,49.38-2.1,73.84,8,36.16,41.59,55.93,75.61,63,28.13,5.86,66.15,8.8,88.14-13.43,11.16-11.28,20.08-28.66,36-28.82,12.46-.12,21.73,10.91,32.56,17.07,18.62,10.58,43.59,5.83,59.6-8.4,25.27-22.46,22.81-53.82,19.93-84.94a179.62,179.62,0,0,1,3.26-53.65c3.68-17.47,11.58-34.54,6.28-52.64-8.85-30.24-49.3-43.53-77.63-43-21.45.4-42.31,7.21-61,17.44C183.33,27.18,167,39,145.62,38.5"/><g class="cls-2"><path class="cls-3" d="M138.56,195.91H240.83c1.8.2,7.27-.3,9.13-.3,27.24,0,45.66-21.47,45.66-48.7A49.35,49.35,0,0,0,233,99.41a49.32,49.32,0,0,0-48.78-42,48.29,48.29,0,0,0-4.9.24A49.31,49.31,0,0,0,94.72,92.11,47.81,47.81,0,0,0,95,97h-.24a49.31,49.31,0,1,0,0,98.62Z"/></g><path class="cls-4" d="M153.56,178.91H255.83c1.8.2,7.27-.3,9.13-.3,27.24,0,45.66-21.47,45.66-48.7A49.35,49.35,0,0,0,248,82.41a49.32,49.32,0,0,0-48.78-42,48.29,48.29,0,0,0-4.9.24,49.31,49.31,0,0,0-84.59,34.46A47.81,47.81,0,0,0,110,80h-.24a49.31,49.31,0,1,0,0,98.62Z"/><path class="cls-5" d="M124.16,113.3a91.17,91.17,0,0,0,27.12,65L112,178a49.31,49.31,0,0,1,0-98.62h.24a47.8,47.8,0,0,1-.24-4.88A49.34,49.34,0,0,1,180.2,29,91.44,91.44,0,0,0,124.16,113.3Z"/><path class="cls-6" d="M226.61,181.91c9.08,0,18.16,0,27.23,0,12.52.05,25.2-.4,36.21-7.07,27.74-16.81,30.83-58.13,9.14-81-13.35-14.07-33.4-19.21-52-14.33l3.69,2.1A52.46,52.46,0,0,0,215,39.85a51,51,0,0,0-8.8-1.94,53.86,53.86,0,0,0-5.59-.47c-1.58,0-3.85.5-5.29,0-1.26-.42-2.67-2.4-3.77-3.28-1.31-1-2.65-2-4-2.94A52.7,52.7,0,0,0,177.12,26a51.76,51.76,0,0,0-22.27-3A52.27,52.27,0,0,0,107,80l3-3c-34.4-.86-59.77,34.17-50.57,66.64a52.78,52.78,0,0,0,30.94,34.24c10.24,4.11,20.86,3.74,31.64,3.81l31.58.22c3.86,0,3.87-6,0-6-15.07-.1-30.18.15-45.24-.32-33.05-1-55.06-37.23-40.05-67C76,93.21,92.51,82.55,110,83a3,3,0,0,0,3-3c-2.07-24.52,14.82-47.24,39.55-50.74,14.23-2,28.07,2.85,38.58,12.45,2.32,2.12,3.31,1.85,6.47,1.75a46.08,46.08,0,0,1,26.08,6.93,47.14,47.14,0,0,1,21.45,32.84c.26,1.62,2.26,2.47,3.69,2.1,32.41-8.49,62.51,18.46,58.43,51.5-1.75,14.12-9.58,27.32-22.33,34.07-9.74,5.15-20.86,5-31.59,5H226.61c-3.86,0-3.87,6,0,6Z"/><polygon class="cls-6" points="65.45 106.81 90.43 106.81 90.43 103.35 67.45 103.35 65.45 106.81"/><circle class="cls-6" cx="96.85" cy="105.08" r="7.16"/><rect class="cls-6" height="3.46" width="67.46" x="59.25" y="120.41"/><circle class="cls-6" cx="132.24" cy="122.14" r="7.16"/><polygon class="cls-6" points="60.45 140.93 113.25 140.93 113.25 137.47 59.45 137.47 60.45 140.93"/><circle class="cls-6" cx="118.34" cy="139.2" r="7.16"/><polygon class="cls-6" points="70.04 157.99 128.26 157.99 128.26 154.53 67.04 154.53 70.04 157.99"/><circle class="cls-6" cx="132.24" cy="156.26" r="7.16"/><path class="cls-6" d="M212.95,177.77a18,18,0,0,0-6.18-2.71,16.88,16.88,0,0,0,4.33-3.59,13.72,13.72,0,0,0,2-6c.1-1.44.35-7.5-4.33-11-3.62-2.7-7.76-3.77-13.33-4.11V138.13H188v12.07h-5.69V138.13H174.8v12.07H160.1V158h4.32c1.18,0,3.27.13,4.16,1.14s1,1.53,1,3.48,0,30.43,0,31.17a3.07,3.07,0,0,1-.77,2.25c-.63.6-1.26.74-2.76.74h-4.47l-1.54,9h14.7v12h7.47v-12H188v12h7.47V205.66c1.93-.11,3.73-.26,4.78-.4a24.7,24.7,0,0,0,11.45-4c4.5-3.17,5.51-8.13,5.62-13.13S215.5,179.7,212.95,177.77Zm-30.68-19s2.37-.21,4.71-.18a23.58,23.58,0,0,1,7.47,1.06,6.5,6.5,0,0,1,5,6,5.91,5.91,0,0,1-3.21,5.74,18.08,18.08,0,0,1-7.71,1.9c-2.72.11-6.21,0-6.21,0Zm16.72,36a23.55,23.55,0,0,1-8.45,2c-3.32.25-8.27.14-8.27.14V180.76s4.75-.25,8.45,0a23.75,23.75,0,0,1,8.2,1.9,6.69,6.69,0,0,1,.07,12.07Z" data-name="BTC alt" id="BTC_alt"/><circle class="cls-6" cx="64.11" cy="50.39" r="4.5"/><circle class="cls-7" cx="79.11" cy="197.39" r="4.5"/><path class="cls-6" d="M53.11,77.89v8a1.5,1.5,0,0,0,3,0v-8a1.5,1.5,0,0,0-3,0Z"/><path class="cls-6" d="M58.61,80.39h-8a1.5,1.5,0,0,0,0,3h8a1.5,1.5,0,0,0,0-3Z"/><circle class="cls-7" cx="286.11" cy="40.39" r="4.5"/><circle class="cls-6" cx="290.11" cy="194.39" r="4.5"/><path class="cls-6" d="M275.11,206.89v8a1.5,1.5,0,0,0,3,0v-8a1.5,1.5,0,0,0-3,0Z"/><path class="cls-6" d="M280.61,209.39h-8a1.5,1.5,0,0,0,0,3h8a1.5,1.5,0,0,0,0-3Z"/></g></g></svg>